<svg version="1.2" xmlns="http://www.w3.org/2000/svg" viewBox="0 0 700 700" width="700" height="700">
	<title>decomp2</title>
	<style>
		.s0 { fill: #d7daf3 } 
		.s1 { fill: #f5f5f5 } 
		.s2 { fill: #eaceea } 
		.s3 { fill: #f3e8ce } 
		.s4 { fill: #d0b1c9 } 
		.s5 { fill: #8a4f7d } 
		.s6 { fill: #fad7d3 } 
		.s7 { fill: #ef8275 } 
		.s8 { fill: #88a096 } 
		.s9 { fill: #e3ccc9 } 
		.s10 { fill: #be918b } 
		.s11 { fill: #bbab8b } 
		.s12 { fill: #deabd1 } 
		.s13 { fill: #8e99f0 } 
		.s14 { fill: #39594c } 
		.s15 { fill: #f5f5f5;stroke: #f5f5f5;stroke-linecap: round;stroke-linejoin: round;stroke-width: 3 } 
		.s16 { fill: #f0f1f4 } 
	</style>
	<path class="s0" d="m145 595.7c0 0 20.9-4.3 48-54.9 27.2-50.7 110.6-115.7 31.2-83.5-79.4 32.1-61 32.9-67.6-14.8-6.7-47.7-27.3-124.7-29-27.6-1.8 97.1-79.2 37.1-41.4 72.8 37.8 35.8 58.8 108 58.8 108z"/>
	<path id="Shape 2" fill-rule="evenodd" class="s1" d="m350 700c-193.5 0-350-156.5-350-350 0-193.5 156.5-350 350-350 193.5 0 350 156.5 350 350 0 193.5-156.5 350-350 350z"/>
	<path class="s2" d="m156 472c-6.6-44.2 10.3-58.5 30-58 19.7 0.5 52.1 2.2 47 24-5.1 21.8 0.7 72.2-39 65-39.7-7.2-31.4 13.2-38-31zm234-150c36.6 63.5 60.6 20.4 77 3 16.4-17.4-40-65-40-65l-92-2-19 76c0 0 50.3-57.6 50 28"/>
	<path class="s3" d="m258 486.1l-63.8-79.8 101-15.3zm4.8-100.3l-47.6-88.8 100.7 3.2zm-48.4-94.7l83.5-10.9-32.3 77.8zm-33.7 147.6l13.7-120.7 97.6 72.2zm-5.7-144.9l102.5-39.9-16.7 108.7zm18.3 12.4l74 52.7-82.7 37.7zm71.5 144.9l-35.1-139.8 138.6 39.5z"/>
	<path class="s4" d="m400.8 285.4l-92.4-19.3 62.9-70.3zm-163.8-105.8l134.6 16.1-81.3 108.5zm134 15.5l48.3 35.7-55 24z"/>
	<path class="s5" d="m392.1 158l-83.4 44.1 3.5-94.2zm-193.6 23l113.9-73.5 6.7 135.4zm113-73.6l60-3.3-27.1 53.6z"/>
	<path class="s6" d="m278.9 227.3l-53.7 101.1-60.7-97zm-49.2 48.2l-65.5-36.8 64.6-38.4zm19.3-32l-27.6 96-69.4-71.9zm-31.7-27.2l-27.7 71.4-48-59.6zm-27.9 71.8l-0.9 53.3-45.7-27.5zm11.2 39.2l-52.5-26.6 49.3-32.2zm45.1-77.9l-34.2-22.6 36.7-18.4z"/>
	<path class="s7" d="m164.4 319l-73.1-88 112.8-19.2zm-25.9-63.9l59-46.6 10.9 74.4zm22.3 30l-78.3-62.1 92.9-36.7zm37.2-19.1l-55.6-52.7 73.4-21.8zm-55.8-53.1l-48.9-21.1 42.8-31.8zm-40.5-4.5l44.6-38.5 11 57.8zm54.8 71.4l34-23.1 3 41zm27.6 311.3l-4 0.3"/>
	<path class="s8" d="m521.8 226.9l-65.9 7.7 26.2-60.9zm-72.5 25.7l-51.3-67.7 84.3-10.6zm60.2-16.3l-30.1-59.1 66.3 3.5zm-49.3-59.2l45.7-71.5 39.1 75.3zm154.1 28.2l-1.1 3.8"/>
	<path class="s9" d="m377.2 247.5l5.8 195.5-172.3-92.8zm-68.3 47.3l-0.6-87.1 75.7 43zm7.7-32.5l60.1 6.6-35.7 48.7zm26.4 54.3l60.8 12.8-41.5 46.2zm31.3-49.1l-12.7 67.4-52.1-44.7zm-30-35l127.2 43-100.8 88.7z"/>
	<path class="s10" d="m263 308.8l126.2 149.5-192.5 34.6zm-24 79.5l-54.7-67.8 86-13.4zm-14.2-30.3l51-32.2 2.4 60.3zm54.5 26.1l55.6-27.9-3.7 62zm-51.4-66.6l126.3-45.5-23.7 132.1zm45.3 8.7l32 60.7-68.5-2.6z"/>
	<path class="s11" d="m149.6 505.1l-51-63.8 80.8-12.3zm3.8-80.1l-38.1-71 80.6 2.5zm-38.8-75.7l66.8-8.7-25.9 62.2zm-26.9 118l11-96.5 78 57.7zm-4.5-115.8l81.9-31.9-13.3 86.9zm14.6 9.9l59.2 42.2-66.1 30.1zm57.1 115.8l-28-111.8 110.8 31.6z"/>
	<path class="s12" d="m196 505c-6.6-44.2 10.3-58.5 30-58 19.7 0.5 52.1 2.2 47 24-5.1 21.8 0.7 72.2-39 65-39.7-7.2-31.4 13.2-38-31zm234-150c36.6 63.5 60.6 20.4 77 3 16.4-17.4-40-65-40-65l-92-2-19 76c0 0 50.3-57.6 50 28"/>
	<path class="s13" d="m183 610c0 0 10.9-11.9 5-55-5.9-43.1 16.4-120-18-65-34.4 55-22.7 47.3-48 21-25.3-26.3-72-64.2-30-4 42 60.2-32 57.9 7 63 39 5.1 84 40 84 40z"/>
	<path fill-rule="evenodd" class="s14" d="m576.6 579c-122.8 122.7-319.8 125.1-445.4 6.9l452.3-452.3c118.1 125.6 115.8 322.6-6.9 445.4z"/>
	<path fill-rule="evenodd" class="s15" d="m177 643.8l-8.8-8.8 460.8-460.8 8.8 8.8z"/>
	<path id="Shape 1" class="s16" d=""/>
</svg>